<svg xmlns="http://www.w3.org/2000/svg" aria-hidden="true" focusable="false" data-prefix="fas" data-icon="search" role="img" width="512" height="512"><rect id="backgroundrect" width="100%" height="100%" x="0" y="0" fill="none" stroke="none"/><g class="currentLayer" style=""><title>Layer 1</title><path fill="#ffffff" d="M505.53191488981247,442.7 L405.8319148898125,343 c-4.5,-4.5 -10.6,-7 -17,-7 H372.53191488981247 c27.6,-35.3 44,-79.7 44,-128 C416.53191488981247,93.1 323.43191488981245,0 208.53191488981247,0 S0.5319148898124695,93.1 0.5319148898124695,208 s93.1,208 208,208 c48.3,0 92.7,-16.4 128,-44 v16.3 c0,6.4 2.5,12.5 7,17 l99.7,99.7 c9.4,9.4 24.6,9.4 33.9,0 l28.3,-28.3 c9.4,-9.4 9.4,-24.6 0.1,-34 zM208.53191488981247,336 c-70.7,0 -128,-57.2 -128,-128 c0,-70.7 57.2,-128 128,-128 c70.7,0 128,57.2 128,128 c0,70.7 -57.2,128 -128,128 z" id="svg_1" class="selected" fill-opacity="1"/></g></svg>